<?xml version="1.0" encoding="utf-8"?>
<!-- Generator: Adobe Illustrator 24.3.0, SVG Export Plug-In . SVG Version: 6.00 Build 0)  -->
<svg version="1.1" id="Layer_1" xmlns="http://www.w3.org/2000/svg" xmlns:xlink="http://www.w3.org/1999/xlink" x="0px" y="0px"
	 viewBox="0 0 300 300" enable-background="new 0 0 300 300" xml:space="preserve">
<g>
	<g>
		<g>
			<polygon fill="#FFDA88" points="183.169,270.991 116.283,270.991 100.501,180.035 198.948,180.035 			"/>
		</g>
		<g>
			<path fill="#FFDA88" d="M206.025,149.146c-0.396,0.024-0.814,0.056-1.187,0.071v7.113c0,4.807-3.901,8.708-8.711,8.708
				c-4.81,0-8.708-3.901-8.708-8.708v-7.213h-24.082v10.005c0,4.555-3.694,8.249-8.246,8.249c-3.901,0-7.148-2.714-8.009-6.352
				l0.041,2.874c0,7.24-5.873,13.113-13.107,13.113c-7.24,0-13.272-5.872-13.272-13.113v-6.562c0,5.544-4.659,10.04-10.203,10.04
				c-5.544,0-10.04-4.496-10.04-10.04v-8.214h-6.775c-4.961,0-8.977,4.017-8.977,8.975v12.97c0,4.958,4.017,8.974,8.977,8.974
				h111.998c4.955,0,8.972-4.017,8.972-8.974v-12.97C214.695,153.236,210.835,149.308,206.025,149.146z"/>
		</g>
		<g>
			<polygon fill="#FFE2A9" points="100.501,180.035 116.283,270.991 129.544,270.991 113.761,180.035 			"/>
		</g>
		<g>
			<path fill="#FFE2A9" d="M98.009,171.061v-12.97c0-2.401,0.956-4.57,2.492-6.18v-2.794h-6.775c-4.961,0-8.977,4.017-8.977,8.975
				v12.97c0,4.958,4.017,8.974,8.977,8.974h13.261C102.025,180.035,98.009,176.019,98.009,171.061z"/>
		</g>
		<g>
			<g>
				<path fill="#FFC67B" d="M151.237,225.515c0-2.51-2.036-4.546-4.546-4.546h-14.445l-1.394-7.314h27.802
					c2.51,0,4.546-2.036,4.546-4.546c0-2.51-2.036-4.546-4.546-4.546h-29.54l-1.607-8.43c-0.474-2.468-2.883-4.07-5.319-3.614
					c-2.466,0.47-4.085,2.853-3.614,5.319l1.282,6.725h-3.004c-2.51,0-4.546,2.036-4.546,4.546c0,2.51,2.036,4.546,4.546,4.546
					h4.742l1.394,7.314h-1.083c-2.51,0-4.547,2.036-4.547,4.546c0,2.51,2.037,4.546,4.547,4.546h2.818l1.219,6.387
					c0.417,2.179,2.324,3.694,4.461,3.694c0.284,0,0.571-0.027,0.858-0.08c2.466-0.471,4.085-2.853,3.614-5.319l-0.894-4.682h12.71
					C149.201,230.061,151.237,228.025,151.237,225.515z"/>
			</g>
			<g>
				<path fill="#FFC67B" d="M175.325,240.806h-0.885l2.898-16.25c0.441-2.475-1.205-4.834-3.676-5.275
					c-2.471-0.426-4.837,1.205-5.274,3.676l-3.182,17.849h-12.234c-2.51,0-4.546,2.036-4.546,4.546c0,2.51,2.036,4.547,4.546,4.547
					h10.611l-0.689,3.874c-0.441,2.475,1.205,4.833,3.676,5.275c0.272,0.047,0.539,0.071,0.805,0.071
					c2.161,0,4.079-1.545,4.469-3.747l0.977-5.473h2.504c2.51,0,4.546-2.036,4.546-4.547
					C179.871,242.842,177.835,240.806,175.325,240.806z"/>
			</g>
		</g>
		<g>
			<path fill="#9AE8CE" d="M122.023,86.49c0-6.84-5.544-12.383-12.385-12.383c-6.642,0-12.047,5.231-12.354,11.809l-0.039-0.021
				l-0.021,0.006c-0.311-6.562-5.712-11.794-12.349-11.794c-6.84,0-12.381,5.542-12.381,12.383c0,3.046,1.098,5.828,2.916,7.983l0,0
				l21.847,21.847l21.847-21.847l-0.006-0.003C120.921,92.318,122.023,89.536,122.023,86.49z"/>
		</g>
		<g>
			<path fill="#AEF4DB" d="M82.931,94.473c-1.817-2.155-2.915-4.937-2.915-7.983c0-5.52,3.635-10.144,8.625-11.741
				c-1.193-0.383-2.442-0.642-3.765-0.642c-6.84,0-12.381,5.542-12.381,12.383c0,3.046,1.098,5.828,2.916,7.983l21.847,21.847
				l3.759-3.762L82.931,94.473z"/>
		</g>
		<g>
			<g>
				<path fill="#F4F4F4" d="M85.456,104.522c-0.074,1.021-0.148,2.045-0.118,3.141c0,0-21.966,7.894-14.294,26.997
					c5.805,14.456,29.457,14.456,29.457,14.456v8.214c0,5.544,4.496,10.04,10.04,10.04c5.544,0,10.203-4.496,10.203-10.04v6.562
					c0,7.24,6.032,13.113,13.272,13.113c7.234,0,13.107-5.872,13.107-13.113l-0.041-2.874c0.861,3.638,4.108,6.352,8.009,6.352
					c4.553,0,8.246-3.694,8.246-8.249v-10.005h24.082v7.213c0,4.807,3.898,8.708,8.708,8.708c4.81,0,8.711-3.901,8.711-8.708v-7.113
					c6.237-0.225,15.685-1.631,19.408-7.805c10.256-17.013,0.157-25.112-9.563-31.591c0,0,5.242-24.834-17.952-23.499
					c0,0,2.217-14.292-21.078-23.471c0,0-26.675-9.18-23.217-33.842c0,0-24.636,7.12-15.347,31.141c0,0-19.71-4.589-27.388,13.963
					c6.811,0.035,12.322,5.557,12.322,12.377c0,3.046-1.101,5.828-2.925,7.98l0.006,0.003L97.257,116.32L85.456,104.522z"/>
			</g>
		</g>
		<g>
			<g>
				<path fill="#F9F9F9" d="M145.803,60.149c-5.292-13.691,0.432-21.886,6.337-26.407c-0.024-1.511,0.065-3.086,0.296-4.734
					c0,0-24.423,7.068-15.448,30.853C141.949,59.258,145.803,60.149,145.803,60.149z"/>
			</g>
			<g>
				<path fill="#F9F9F9" d="M159.454,166.094c-1.806-1.134-3.152-2.936-3.658-5.076l0.041,2.874c0,1.205-0.216,2.347-0.518,3.454
					C156.837,167.305,158.246,166.852,159.454,166.094z"/>
			</g>
			<g>
				<path fill="#F9F9F9" d="M122.023,86.49c0,3.046-1.101,5.828-2.925,7.98l0.006,0.003l-17.49,17.49l4.357,4.357l21.847-21.847
					l-0.006-0.003c1.823-2.152,2.925-4.934,2.925-7.98c0-6.82-5.512-12.342-12.322-12.377c4.108-9.928,11.647-13.204,17.783-14.129
					c-3.919-0.626-19.793-2.07-26.497,14.129C116.511,74.148,122.023,79.67,122.023,86.49z"/>
			</g>
			<g>
				<path fill="#F9F9F9" d="M196.133,156.329v-7.213h-8.714v7.213c0,4.807,3.898,8.708,8.708,8.708c1.596,0,3.072-0.462,4.357-1.211
					C197.894,162.317,196.133,159.541,196.133,156.329z"/>
			</g>
			<g>
				<path fill="#F9F9F9" d="M109.215,157.33v-8.214c0,0-23.653,0-29.457-14.456c-5.63-14.015,4.689-21.992,10.588-25.248l-4.89-4.89
					c-0.074,1.021-0.148,2.045-0.118,3.141c0,0-21.966,7.894-14.294,26.997c5.805,14.456,29.457,14.456,29.457,14.456v8.214
					c0,5.544,4.496,10.04,10.04,10.04c1.563,0,3.037-0.388,4.372-1.024C111.553,164.723,109.215,161.311,109.215,157.33z"/>
			</g>
		</g>
		<g>
			<path fill="#FE6F80" d="M183.071,66.398c15.356,8.907,13.66,19.924,13.66,19.924c2.989-0.169,5.491,0.103,7.607,0.692
				l17.23-6.636l-0.003-0.009c2.537-1.228,4.674-3.33,5.908-6.109c2.773-6.251-0.044-13.567-6.299-16.341
				c-6.071-2.693-13.13-0.103-16.081,5.779l-0.027-0.031l-0.021-0.003c2.38-6.124-0.441-13.098-6.503-15.79
				c-6.254-2.774-13.568,0.044-16.339,6.296c-1.237,2.782-1.361,5.773-0.577,8.482L183.071,66.398z"/>
		</g>
		<g>
			<path fill="#FFA1AA" d="M202.793,86.321c0,0,1.696-11.017-13.66-19.924l-1.445-3.746c-0.784-2.708-0.66-5.699,0.577-8.482
				c1.604-3.623,4.751-6.041,8.318-6.938c-5.754-1.479-11.893,1.329-14.38,6.938c-1.237,2.782-1.361,5.773-0.577,8.482l1.445,3.746
				c15.356,8.907,13.66,19.924,13.66,19.924c2.989-0.169,5.491,0.103,7.607,0.692l1.755-0.675
				C205.057,86.274,203.974,86.256,202.793,86.321z"/>
		</g>
		<g>
			<path fill="#9AE8CE" d="M152.753,63.879c0,1.675-1.356,3.031-3.031,3.031c-1.676,0-3.031-1.356-3.031-3.031
				c0-1.676,1.355-3.031,3.031-3.031C151.397,60.848,152.753,62.204,152.753,63.879z"/>
		</g>
		<g>
			<path fill="#FE6F80" d="M177.219,83.983c0,1.675-1.355,3.031-3.031,3.031c-1.675,0-3.031-1.356-3.031-3.031
				c0-1.676,1.356-3.031,3.031-3.031C175.864,80.952,177.219,82.307,177.219,83.983z"/>
		</g>
		<g>
			<path fill="#FE6F80" d="M164.716,106.037c0,1.675-1.355,3.031-3.031,3.031c-1.675,0-3.031-1.355-3.031-3.031
				c0-1.675,1.356-3.031,3.031-3.031C163.361,103.006,164.716,104.362,164.716,106.037z"/>
		</g>
		<g>
			<path fill="#9AE8CE" d="M137.059,113.289c0,1.675-1.355,3.031-3.031,3.031c-1.675,0-3.031-1.356-3.031-3.031
				c0-1.675,1.356-3.031,3.031-3.031C135.703,110.258,137.059,111.614,137.059,113.289z"/>
		</g>
		<g>
			<circle fill="#9AE8CE" cx="158.655" cy="135.101" r="3.031"/>
		</g>
		<g>
			<path fill="#FE6F80" d="M129.103,143.69c0,1.675-1.355,3.031-3.031,3.031c-1.675,0-3.031-1.356-3.031-3.031
				c0-1.675,1.356-3.031,3.031-3.031C127.747,140.659,129.103,142.015,129.103,143.69z"/>
		</g>
		<g>
			<circle fill="#FE6F80" cx="204.838" cy="135.101" r="3.031"/>
		</g>
		<g>
			<path fill="#9AE8CE" d="M95.004,132.07c0,1.675-1.355,3.031-3.031,3.031c-1.675,0-3.031-1.356-3.031-3.031
				s1.356-3.031,3.031-3.031C93.649,129.039,95.004,130.394,95.004,132.07z"/>
		</g>
		<g>
			<path fill="#FE6F80" d="M140.09,83.983c0,1.675-1.355,3.031-3.031,3.031c-1.675,0-3.031-1.356-3.031-3.031
				c0-1.676,1.356-3.031,3.031-3.031C138.734,80.952,140.09,82.307,140.09,83.983z"/>
		</g>
		<g>
			<path fill="#9AE8CE" d="M193.511,113.289c0,1.675-1.355,3.031-3.031,3.031c-1.675,0-3.031-1.356-3.031-3.031
				c0-1.675,1.356-3.031,3.031-3.031C192.155,110.258,193.511,111.614,193.511,113.289z"/>
		</g>
	</g>
	<g>
		<g>
			<path fill="#161616" d="M183.169,275.537h-66.885c-2.211,0-4.103-1.589-4.478-3.768l-15.782-90.956
				c-0.231-1.323,0.136-2.679,1-3.706c0.864-1.027,2.137-1.619,3.478-1.619h98.447c1.341,0,2.614,0.592,3.478,1.619
				s1.231,2.383,1,3.706l-3.303,19.032c-0.429,2.471-2.776,4.144-5.257,3.7c-2.472-0.429-4.129-2.782-3.7-5.257l2.377-13.707
				h-87.641l14.205,81.863h59.237l8.329-48.01c0.426-2.475,2.768-4.15,5.257-3.7c2.472,0.429,4.129,2.782,3.7,5.257l-8.983,51.778
				C187.271,273.948,185.38,275.537,183.169,275.537z"/>
		</g>
		<g>
			<path fill="#161616" d="M97.257,120.866c-1.163,0-2.326-0.444-3.215-1.332L72.195,97.687c-0.092-0.092-0.178-0.187-0.26-0.284
				c-2.572-3.049-3.987-6.923-3.987-10.913c0-9.336,7.595-16.929,16.928-16.929c4.881,0,9.288,2.063,12.381,5.386
				c3.09-3.323,7.497-5.386,12.381-5.386c9.336,0,16.931,7.594,16.931,16.929c0,3.901-1.356,7.69-3.821,10.703
				c-0.13,0.175-0.272,0.34-0.429,0.494l-21.847,21.847C99.583,120.422,98.42,120.866,97.257,120.866z M78.775,91.409l18.482,18.482
				l18.437-18.44c1.166-1.409,1.782-3.123,1.782-4.961c0-4.322-3.516-7.838-7.838-7.838c-4.185,0-7.616,3.286-7.814,7.477
				c-0.071,1.56-0.941,2.975-2.3,3.744c-1.211,0.681-2.655,0.773-3.922,0.266c-0.358-0.136-0.701-0.32-1.018-0.548
				c-1.128-0.811-1.835-2.09-1.9-3.475c-0.198-4.185-3.629-7.465-7.808-7.465c-4.322,0-7.835,3.516-7.835,7.838
				C77.041,88.307,77.641,90.003,78.775,91.409z"/>
		</g>
		<g>
			<path fill="#161616" d="M204.338,91.56c-0.409,0-0.82-0.056-1.22-0.166c-1.743-0.485-3.809-0.678-6.13-0.533
				c-1.356,0.062-2.699-0.468-3.623-1.483c-0.923-1.015-1.338-2.395-1.128-3.75c0.024-0.243,0.746-8.226-11.449-15.298
				c-0.894-0.52-1.587-1.329-1.959-2.297l-1.445-3.746c-0.047-0.121-0.089-0.246-0.124-0.37c-1.11-3.835-0.832-7.952,0.79-11.594
				c1.829-4.129,5.162-7.302,9.38-8.927c4.218-1.627,8.818-1.513,12.956,0.323c4.461,1.982,7.654,5.656,9.131,9.945
				c4.171-1.78,9.034-1.882,13.5,0.099c4.135,1.834,7.308,5.167,8.933,9.387c1.625,4.218,1.512,8.819-0.323,12.953
				c-1.575,3.546-4.327,6.447-7.773,8.205c-0.207,0.118-0.426,0.225-0.654,0.311l-17.23,6.636
				C205.448,91.459,204.895,91.56,204.338,91.56z M200.967,81.831c1.054,0.089,2.075,0.234,3.055,0.432l15.628-6.019
				c1.628-0.807,2.927-2.165,3.667-3.83c0.85-1.912,0.903-4.042,0.151-5.994c-0.755-1.953-2.223-3.496-4.138-4.345
				c-3.833-1.702-8.294-0.087-10.173,3.661c-0.684,1.362-2.001,2.289-3.51,2.474c-1.356,0.184-2.697-0.284-3.679-1.211
				c-0.326-0.3-0.607-0.65-0.835-1.039c-0.701-1.197-0.826-2.651-0.326-3.944c1.518-3.903-0.287-8.291-4.108-9.987
				c-1.915-0.849-4.046-0.901-5.997-0.149c-1.953,0.752-3.493,2.218-4.342,4.132c-0.737,1.662-0.879,3.457-0.411,5.207l0.805,2.09
				C196.867,69.642,200.037,77.006,200.967,81.831z"/>
		</g>
		<g>
			<path fill="#161616" d="M134.016,181.551c-7.566,0-14.045-4.697-16.626-11.304c-2.048,1.066-4.378,1.669-6.849,1.669
				c-8.042,0-14.587-6.544-14.587-14.587v-3.949c-6.621-0.696-18.837-3.09-25.71-11.363c-1.607-1.933-1.341-4.798,0.589-6.402
				c1.93-1.607,4.804-1.338,6.402,0.589c5.656,6.808,18.719,8.347,23.277,8.365c2.504,0.009,4.535,2.042,4.535,4.546v8.214
				c0,3.028,2.466,5.494,5.494,5.494c3.066,0,5.656-2.516,5.656-5.494c0-2.51,2.036-4.546,4.547-4.546s4.546,2.036,4.546,4.546
				v6.562c0,4.724,3.913,8.566,8.726,8.566c4.721,0,8.56-3.842,8.56-8.566l-0.042-2.809c-0.032-2.318,1.684-4.292,3.987-4.576
				c2.306-0.296,4.449,1.205,4.984,3.463c0.397,1.681,1.871,2.853,3.585,2.853c2.039,0,3.7-1.661,3.7-3.703v-10.005
				c0-2.51,2.036-4.546,4.546-4.546h24.082c2.51,0,4.546,2.036,4.546,4.546v7.213c0,2.294,1.868,4.162,4.162,4.162
				c2.297,0,4.165-1.868,4.165-4.162v-7.113c0-2.448,1.936-4.455,4.384-4.544c7.986-0.287,13.702-2.332,15.679-5.609
				c7.983-13.246,1.64-18.908-8.193-25.461c-1.548-1.03-2.312-2.901-1.927-4.721c0.542-2.652,1.16-10.496-2.489-14.714
				c-2.149-2.483-5.801-3.573-10.753-3.309c-1.359,0.112-2.702-0.465-3.626-1.48c-0.923-1.018-1.338-2.397-1.128-3.753
				c0.035-0.355,0.977-10.968-18.251-18.545c-8.992-3.09-24.644-13.249-26.266-30.813c-2.475,1.606-5.132,3.943-6.713,7.163
				c-2.045,4.166-1.936,9.239,0.323,15.079c0.607,1.572,0.296,3.349-0.808,4.622c-1.11,1.273-2.839,1.823-4.464,1.446
				c-0.639-0.142-16.087-3.398-22.158,11.276c-0.728,1.769-2.504,2.896-4.422,2.802c-3.62,0.071-6.672,2.587-7.456,6.165
				c-0.246,1.128-0.915,2.119-1.868,2.773l-0.559,0.379c-1.267,0.897-2.907,1.075-4.333,0.486c-1.433-0.586-2.469-1.862-2.75-3.386
				c-0.681-3.718-3.892-6.417-7.637-6.417c-4.322,0-7.835,3.513-7.835,7.835c0,1.817,0.601,3.513,1.735,4.919l9.895,9.898
				c0.935,0.932,1.415,2.226,1.32,3.543c-0.062,0.873-0.133,1.752-0.109,2.691c0.053,1.96-1.157,3.735-3.004,4.398
				c-0.065,0.027-8.048,3.016-11.431,9.208c-1.205,2.202-3.966,3.016-6.172,1.808c-2.202-1.205-3.013-3.966-1.809-6.171
				c3.164-5.784,8.572-9.507,12.296-11.529l-7.565-7.569c-0.092-0.092-0.178-0.187-0.26-0.284
				c-2.572-3.046-3.987-6.923-3.987-10.913c0-9.336,7.595-16.929,16.928-16.929c4.831,0,9.25,2.057,12.352,5.411
				c2.463-2.677,5.763-4.514,9.463-5.158c5.813-11.209,16.149-14.535,24.227-14.757c-1.039-5.708-0.382-10.974,1.968-15.716
				c5.387-10.864,17.762-14.55,18.289-14.7c1.471-0.425,3.075-0.078,4.239,0.932c1.166,1.009,1.738,2.54,1.524,4.065
				c-2.886,20.585,19.263,28.585,20.208,28.917c17.872,7.04,22.646,17.171,23.821,23.261c5.813,0.465,10.407,2.623,13.693,6.444
				c5.266,6.124,5.331,14.788,4.911,19.379c8.196,5.701,20.438,16.43,8.569,36.12c-3.851,6.387-11.659,8.847-18.754,9.673v2.898
				c0,7.308-5.947,13.255-13.257,13.255c-7.308,0-13.255-5.947-13.255-13.255v-2.667h-14.989v5.458
				c0,7.057-5.739,12.796-12.793,12.796c-1.729,0-3.386-0.343-4.905-0.971C147.454,177.194,141.235,181.551,134.016,181.551z"/>
		</g>
		<g>
			<path fill="#161616" d="M205.723,184.582H93.726c-7.456,0-13.524-6.065-13.524-13.521v-12.97c0-7.456,6.068-13.521,13.524-13.521
				h6.775c2.51,0,4.546,2.036,4.546,4.546v8.214c0,3.028,2.466,5.494,5.494,5.494c3.066,0,5.656-2.516,5.656-5.494
				c0-2.51,2.036-4.546,4.547-4.546s4.546,2.036,4.546,4.546v6.562c0,4.724,3.913,8.566,8.726,8.566c4.721,0,8.56-3.842,8.56-8.566
				l-0.042-2.809c-0.032-2.318,1.684-4.292,3.987-4.576c2.306-0.296,4.449,1.205,4.984,3.463c0.397,1.681,1.871,2.853,3.585,2.853
				c2.039,0,3.7-1.661,3.7-3.703v-10.005c0-2.51,2.036-4.546,4.546-4.546h24.082c2.51,0,4.546,2.036,4.546,4.546v7.213
				c0,2.294,1.868,4.162,4.162,4.162c2.297,0,4.165-1.868,4.165-4.162v-7.113c0-2.442,1.927-4.446,4.366-4.544l1.095-0.065
				c0.145-0.006,0.287-0.015,0.426-0.006c7.326,0.249,13.062,6.172,13.062,13.488v12.97
				C219.241,178.517,213.176,184.582,205.723,184.582z M147.309,175.489h58.414c2.439,0,4.425-1.986,4.425-4.428v-12.97
				c0-0.923-0.281-1.776-0.764-2.483v0.722c0,7.308-5.947,13.255-13.257,13.255c-7.308,0-13.255-5.947-13.255-13.255v-2.667h-14.989
				v5.458c0,7.057-5.739,12.796-12.793,12.796c-1.729,0-3.386-0.343-4.905-0.971C149.458,172.609,148.484,174.139,147.309,175.489z
				 M93.726,153.662c-2.442,0-4.431,1.986-4.431,4.428v12.97c0,2.442,1.989,4.428,4.431,4.428h26.864
				c-1.356-1.536-2.445-3.309-3.2-5.242c-2.048,1.066-4.378,1.669-6.849,1.669c-8.042,0-14.587-6.544-14.587-14.587v-3.667H93.726z"
				/>
		</g>
		<g>
			<path fill="#161616" d="M152.753,63.879c0,1.675-1.356,3.031-3.031,3.031c-1.676,0-3.031-1.356-3.031-3.031
				c0-1.676,1.355-3.031,3.031-3.031C151.397,60.848,152.753,62.204,152.753,63.879z"/>
		</g>
		<g>
			<path fill="#161616" d="M177.219,83.983c0,1.675-1.355,3.031-3.031,3.031c-1.675,0-3.031-1.356-3.031-3.031
				c0-1.676,1.356-3.031,3.031-3.031C175.864,80.952,177.219,82.307,177.219,83.983z"/>
		</g>
		<g>
			<path fill="#161616" d="M164.716,106.037c0,1.675-1.355,3.031-3.031,3.031c-1.675,0-3.031-1.355-3.031-3.031
				c0-1.675,1.356-3.031,3.031-3.031C163.361,103.006,164.716,104.362,164.716,106.037z"/>
		</g>
		<g>
			<path fill="#161616" d="M137.059,113.289c0,1.675-1.355,3.031-3.031,3.031c-1.675,0-3.031-1.356-3.031-3.031
				c0-1.675,1.356-3.031,3.031-3.031C135.703,110.258,137.059,111.614,137.059,113.289z"/>
		</g>
		<g>
			<circle fill="#161616" cx="158.655" cy="135.101" r="3.031"/>
		</g>
		<g>
			<path fill="#161616" d="M129.103,143.69c0,1.675-1.355,3.031-3.031,3.031c-1.675,0-3.031-1.356-3.031-3.031
				c0-1.675,1.356-3.031,3.031-3.031C127.747,140.659,129.103,142.015,129.103,143.69z"/>
		</g>
		<g>
			<circle fill="#161616" cx="204.838" cy="135.101" r="3.031"/>
		</g>
		<g>
			<path fill="#161616" d="M95.004,132.07c0,1.675-1.355,3.031-3.031,3.031c-1.675,0-3.031-1.356-3.031-3.031
				s1.356-3.031,3.031-3.031C93.649,129.039,95.004,130.394,95.004,132.07z"/>
		</g>
		<g>
			<path fill="#161616" d="M140.09,83.983c0,1.675-1.355,3.031-3.031,3.031c-1.675,0-3.031-1.356-3.031-3.031
				c0-1.676,1.356-3.031,3.031-3.031C138.734,80.952,140.09,82.307,140.09,83.983z"/>
		</g>
		<g>
			<path fill="#161616" d="M193.511,113.289c0,1.675-1.355,3.031-3.031,3.031c-1.675,0-3.031-1.356-3.031-3.031
				c0-1.675,1.356-3.031,3.031-3.031C192.155,110.258,193.511,111.614,193.511,113.289z"/>
		</g>
		<g>
			<g>
				<path fill="#161616" d="M151.237,225.515c0-2.51-2.036-4.546-4.546-4.546h-14.445l-1.394-7.314h27.802
					c2.51,0,4.546-2.036,4.546-4.546c0-2.51-2.036-4.546-4.546-4.546h-29.54l-1.607-8.43c-0.474-2.468-2.883-4.07-5.319-3.614
					c-2.466,0.47-4.085,2.853-3.614,5.319l1.282,6.725h-3.004c-2.51,0-4.546,2.036-4.546,4.546c0,2.51,2.036,4.546,4.546,4.546
					h4.742l1.394,7.314h-1.083c-2.51,0-4.547,2.036-4.547,4.546c0,2.51,2.037,4.546,4.547,4.546h2.818l1.219,6.387
					c0.417,2.179,2.324,3.694,4.461,3.694c0.284,0,0.571-0.027,0.858-0.08c2.466-0.471,4.085-2.853,3.614-5.319l-0.894-4.682h12.71
					C149.201,230.061,151.237,228.025,151.237,225.515z"/>
			</g>
			<g>
				<path fill="#161616" d="M175.325,240.806h-0.885l2.898-16.25c0.441-2.475-1.205-4.834-3.676-5.275
					c-2.471-0.426-4.837,1.205-5.274,3.676l-3.182,17.849h-12.234c-2.51,0-4.546,2.036-4.546,4.546c0,2.51,2.036,4.547,4.546,4.547
					h10.611l-0.689,3.874c-0.441,2.475,1.205,4.833,3.676,5.275c0.272,0.047,0.539,0.071,0.805,0.071
					c2.161,0,4.079-1.545,4.469-3.747l0.977-5.473h2.504c2.51,0,4.546-2.036,4.546-4.547
					C179.871,242.842,177.835,240.806,175.325,240.806z"/>
			</g>
		</g>
	</g>
</g>
</svg>
