<?xml version="1.0" encoding="utf-8"?>
<!-- Generator: Adobe Illustrator 21.0.0, SVG Export Plug-In . SVG Version: 6.00 Build 0)  -->
<svg version="1.1" id="Layer_1" xmlns="http://www.w3.org/2000/svg" xmlns:xlink="http://www.w3.org/1999/xlink" x="0px" y="0px"
	 viewBox="0 0 512 512" style="enable-background:new 0 0 512 512;" xml:space="preserve">
<style type="text/css">
	.st0{fill:#71CCE0;}
	.st1{fill:#DFDFDF;}
	.st2{fill:#4A555F;}
	.st3{fill:#FFD452;}
	.st4{fill:#F58E6F;}
	.st5{fill:#FFFFFF;}
	.st6{fill:none;}
</style>
<g>
	<g>
		<g>
			<path class="st1" d="M368.134,355.421h-22.245c-18.885,0-36.279-9.469-46.524-25.332l-34.891-53.998
				c-13.383-20.714-36.094-33.08-60.755-33.08l-71.885,0.001l-42.095,1.051c-15.14,0-74.384,20.413-74.384,78.207v70.725
				c0,9.845,4.285,19.171,11.597,25.446l0.954,0.892l11.599,11.956v67.724h194.826v-70.547l-0.189-4.606v-87.777l47.608,58.882
				c5.981,7.396,14.866,11.637,24.375,11.637h62.008c14.11,0,25.588-11.479,25.588-25.59
				C393.721,366.901,382.243,355.421,368.134,355.421z"/>
		</g>
	</g>
	<g>
		<g>
			<rect x="24.611" y="350.566" class="st2" width="6.669" height="148.447"/>
		</g>
	</g>
	<g>
		<g>
			<g>
				<path class="st2" d="M150.644,85.872c-40.93,0-74.227,33.297-74.227,74.226c0,40.928,33.297,74.225,74.227,74.225
					c40.93,0,74.227-33.297,74.227-74.226S191.573,85.872,150.644,85.872z M150.644,227.654c-37.252,0-67.558-30.306-67.558-67.556
					c0-37.251,30.306-67.557,67.558-67.557s67.558,30.306,67.558,67.556C218.201,197.349,187.896,227.654,150.644,227.654z"/>
			</g>
		</g>
	</g>
	<g>
		<g>
			<path class="st3" d="M192.627,118.113c-11.213-11.214-26.123-17.389-41.983-17.389c-32.74,0-59.376,26.635-59.376,59.374
				c0,15.86,6.177,30.77,17.392,41.985c11.215,11.214,26.125,17.389,41.985,17.389c32.738,0,59.374-26.635,59.374-59.374
				C210.019,144.238,203.842,129.328,192.627,118.113z"/>
		</g>
	</g>
	<g>
		<g>
			<path class="st2" d="M368.131,340.063h-22.243c-13.648,0-26.218-6.844-33.625-18.307l-34.89-53.999
				c-16.223-25.111-43.758-40.103-73.656-40.103l-72.062,0.001l-41.917,1.051C64.197,228.707,0,256.539,0,322.271v70.724
				c0,14.278,6.189,27.805,16.987,37.137l8.566,8.829l4.787-4.644l-8.671-8.936l-0.219-0.208
				c-9.393-8.067-14.781-19.796-14.781-32.179v-70.724c0-61.047,59.426-86.896,83.151-86.897l41.917-1.051h71.98
				c27.625,0,53.065,13.851,68.055,37.053l34.89,53.999c8.64,13.373,23.304,21.357,39.226,21.357h22.243
				c18.902,0,34.281,15.377,34.281,34.279s-15.379,34.279-34.281,34.279h-62.007c-12.146,0-23.491-5.417-31.13-14.862
				l-62.836-77.717l-5.184,4.193l62.836,77.717c8.909,11.019,22.145,17.338,36.314,17.338h62.007
				c22.58,0,40.949-18.369,40.949-40.948C409.08,358.432,390.71,340.063,368.131,340.063z"/>
		</g>
	</g>
	<g>
		<g>
			<rect x="241.977" y="369.11" class="st2" width="6.669" height="129.903"/>
		</g>
	</g>
	<g>
		<g>
			<path class="st2" d="M345.897,340.073c-10.249,0-19.998-3.866-27.451-10.885l-4.572,4.854c8.694,8.19,20.068,12.7,32.023,12.7
				h22.225v-6.669H345.897z"/>
		</g>
	</g>
	<g>
		<g>
			<polygon class="st2" points="273.057,85.872 273.057,269.566 279.726,269.566 279.726,92.541 505.292,92.541 505.292,399.273 
				400.738,399.273 400.738,405.942 511.96,405.942 511.96,85.872 			"/>
		</g>
	</g>
	<g>
		<g>
			<g>
				<path class="st2" d="M336.597,66.055v26.486h111.824V66.055H336.597z M441.752,85.872h-98.486V72.724h98.486V85.872z"/>
			</g>
		</g>
	</g>
	<g>
		<g>
			<g>
				<path class="st2" d="M288.158,12.987v22.567l37.337,37.17h134.028l37.337-37.17V12.987H288.158z M490.191,32.783L456.77,66.055
					H328.248l-33.421-33.272V19.656h195.364V32.783z"/>
			</g>
		</g>
	</g>
	<g>
		<g>
			<polygon class="st4" points="302.607,27.436 302.607,29.55 331.46,58.275 453.557,58.275 482.41,29.55 482.41,27.436 			"/>
		</g>
	</g>
	<g>
		<g>
			<g>
				<path class="st2" d="M429.918,231.682h-74.832c-23.302,0-42.26,18.957-42.26,42.259v59.114l1.049,0.987
					c8.694,8.19,20.068,12.701,32.023,12.701h126.282v-72.801C472.179,250.64,453.221,231.682,429.918,231.682z M465.51,340.074
					H345.897c-9.776,0-19.095-3.517-26.402-9.933v-56.2c0-19.624,15.967-35.59,35.592-35.59h74.832
					c19.625,0,35.592,15.966,35.592,35.59V340.074z"/>
			</g>
		</g>
	</g>
	<g>
		<g>
			<path class="st4" d="M429.925,246.139h-74.847c-15.316,0-27.81,12.471-27.81,27.809v52.44c5.424,3.824,11.893,5.914,18.628,5.914
				h33.278l-5.002-29.232h39.747l-5.002,29.232h48.816v-58.353C457.734,258.609,445.264,246.139,429.925,246.139z"/>
		</g>
	</g>
	<g>
		<g>
			<g>
				<path class="st2" d="M393.255,128.435h-1.491c-13.234,0-24.001,10.767-24.001,24.002v1.493
					c0,13.234,10.768,24.001,24.001,24.001h1.491c13.236,0,24.003-10.767,24.003-24.001v-1.493
					C417.258,139.202,406.49,128.435,393.255,128.435z M410.589,153.929c0,9.557-7.776,17.333-17.334,17.333h-1.491
					c-9.556,0-17.332-7.775-17.332-17.333v-1.493c0-9.557,7.776-17.333,17.332-17.333h1.491c9.558,0,17.334,7.775,17.334,17.333
					V153.929z"/>
			</g>
		</g>
	</g>
	<g>
		<g>
			<path class="st0" d="M393.254,142.884h-1.491c-5.267,0-9.552,4.285-9.552,9.552v1.493c0,5.267,4.285,9.552,9.552,9.552h1.491
				c5.269,0,9.554-4.285,9.554-9.552v-1.493C402.809,147.169,398.523,142.884,393.254,142.884z"/>
		</g>
	</g>
	<g>
		<g>
			<g>
				<path class="st2" d="M337.485,192.866c-6.458,0-11.714,5.255-11.714,11.714c0,6.459,5.256,11.714,11.714,11.714
					c6.458,0,11.714-5.255,11.714-11.714C349.199,198.121,343.943,192.866,337.485,192.866z M337.485,209.625
					c-2.781,0-5.045-2.263-5.045-5.045c0-2.782,2.264-5.045,5.045-5.045c2.781,0,5.045,2.263,5.045,5.045
					C342.53,207.361,340.266,209.625,337.485,209.625z"/>
			</g>
		</g>
	</g>
	<g>
		<g>
			<g>
				<path class="st2" d="M374.168,192.866c-6.458,0-11.714,5.255-11.714,11.714c0,6.459,5.256,11.714,11.714,11.714
					s11.714-5.255,11.714-11.714C385.882,198.121,380.626,192.866,374.168,192.866z M374.168,209.625
					c-2.781,0-5.045-2.263-5.045-5.045c0-2.782,2.264-5.045,5.045-5.045s5.045,2.263,5.045,5.045
					C379.213,207.361,376.949,209.625,374.168,209.625z"/>
			</g>
		</g>
	</g>
	<g>
		<g>
			<g>
				<path class="st2" d="M410.852,192.866c-6.458,0-11.714,5.255-11.714,11.714c0,6.459,5.256,11.714,11.714,11.714
					c6.458,0,11.712-5.255,11.712-11.714C422.563,198.121,417.31,192.866,410.852,192.866z M410.852,209.625
					c-2.781,0-5.045-2.263-5.045-5.045c0-2.782,2.264-5.045,5.045-5.045c2.781,0,5.043,2.263,5.043,5.045
					C415.895,207.361,413.633,209.625,410.852,209.625z"/>
			</g>
		</g>
	</g>
	<g>
		<g>
			<g>
				<path class="st2" d="M447.533,192.866c-6.458,0-11.712,5.255-11.712,11.714c0,6.459,5.253,11.714,11.712,11.714
					c6.458,0,11.714-5.255,11.714-11.714C459.247,198.121,453.991,192.866,447.533,192.866z M447.533,209.625
					c-2.781,0-5.043-2.263-5.043-5.045c0-2.782,2.262-5.045,5.043-5.045c2.781,0,5.045,2.263,5.045,5.045
					C452.578,207.361,450.314,209.625,447.533,209.625z"/>
			</g>
		</g>
	</g>
	<g>
		<g>
			<g>
				<path class="st2" d="M370.213,299.732l8.058,47h31.547l8.061-47H370.213z M404.196,340.063h-20.302l-5.77-33.662h31.845
					L404.196,340.063z"/>
			</g>
		</g>
	</g>
	<g>
		<g>
			<g>
				<path class="st2" d="M384.786,231.688v19.74h17.185v-19.74H384.786z M395.302,244.759h-3.847v-6.402h3.847V244.759z"/>
			</g>
		</g>
	</g>
	<g>
		<g>
			<path class="st2" d="M404.984,263.313l-5.023,4.388c7.364,8.426,0.873,15.722,0.108,16.526l4.791,4.639
				C408.954,284.664,414.247,273.915,404.984,263.313z"/>
		</g>
	</g>
	<g>
		<g>
			<path class="st2" d="M389.256,284.347l-4.791-4.639c-4.094,4.203-9.389,14.952-0.124,25.553l5.023-4.388
				C381.999,292.446,388.49,285.151,389.256,284.347z"/>
		</g>
	</g>
	<g>
		<g>
			<g>
				<path class="st2" d="M336.269,109.514l0.981,6.596c2.101-0.313,4.274-0.61,6.521-0.89l-0.821-6.618
					C340.648,108.888,338.423,109.193,336.269,109.514z M322.959,111.878l1.363,6.528c2.058-0.43,4.205-0.844,6.443-1.24
					l-1.164-6.567C327.295,111.007,325.083,111.434,322.959,111.878z M363.055,106.74l0.426,6.655
					c2.147-0.138,4.346-0.26,6.602-0.367l-0.317-6.661C367.475,106.475,365.237,106.6,363.055,106.74z M349.646,107.846l0.677,6.634
					c2.13-0.218,4.32-0.419,6.571-0.604l-0.547-6.647C354.053,107.418,351.819,107.624,349.646,107.846z M309.782,115.137
					l1.858,6.404c1.986-0.576,4.083-1.14,6.304-1.685l-1.594-6.476C314.039,113.948,311.851,114.535,309.782,115.137z
					 M376.478,106.1l0.213,6.666c2.16-0.07,4.365-0.125,6.619-0.165l-0.122-6.668C380.904,105.974,378.668,106.03,376.478,106.1z
					 M273.45,135.942l5.857,3.188c0.009-0.016,0.947-1.609,3.727-3.978l-4.324-5.077C274.994,133.24,273.676,135.518,273.45,135.942
					z M284.474,125.88l3.56,5.64c1.683-1.062,3.541-2.104,5.521-3.096l-2.987-5.962C288.393,123.552,286.343,124.702,284.474,125.88
					z M296.859,119.607l2.536,6.167c1.919-0.789,3.953-1.554,6.05-2.275l-2.167-6.306
					C301.057,117.957,298.897,118.769,296.859,119.607z M442.688,115.423c2.245,0.293,4.418,0.603,6.511,0.93l1.029-6.589
					c-2.147-0.335-4.374-0.654-6.68-0.954L442.688,115.423z M468.471,120.25c2.212,0.567,4.303,1.152,6.28,1.749l1.928-6.383
					c-2.06-0.623-4.242-1.234-6.554-1.826L468.471,120.25z M492.709,129.13c1.958,1.029,3.788,2.108,5.438,3.206l3.695-5.551
					c-1.841-1.226-3.871-2.424-6.033-3.559L492.709,129.13z M480.917,124.029c2.091,0.749,4.112,1.542,6.009,2.357l2.631-6.127
					c-2.021-0.869-4.17-1.712-6.391-2.508L480.917,124.029z M507.51,131.188l-4.52,4.902c2.008,1.853,2.725,3.046,2.731,3.058
					l2.905-1.637l3.106,1.214C512.149,137.658,512.779,136.047,507.51,131.188z M403.176,112.63c2.253,0.048,4.457,0.11,6.615,0.188
					l0.239-6.665c-2.188-0.078-4.426-0.142-6.71-0.19L403.176,112.63z M389.898,105.857l0.03,6.669l2.575-0.006
					c1.365,0,2.716,0.005,4.051,0.015l0.052-6.669c-1.353-0.01-2.72-0.015-4.103-0.015L389.898,105.857z M416.396,113.105
					c2.253,0.116,4.453,0.247,6.6,0.394l0.456-6.654c-2.186-0.149-4.42-0.283-6.712-0.401L416.396,113.105z M429.576,114.01
					c2.251,0.196,4.439,0.409,6.567,0.638l0.712-6.631c-2.171-0.234-4.403-0.451-6.701-0.651L429.576,114.01z M455.678,117.454
					c2.236,0.412,4.376,0.844,6.432,1.291l1.416-6.517c-2.121-0.461-4.331-0.906-6.636-1.332L455.678,117.454z"/>
			</g>
		</g>
	</g>
</g>
</svg>
