<?xml version="1.0" encoding="UTF-8"?>
<!DOCTYPE svg PUBLIC "-//W3C//DTD SVG 1.1//EN" "http://www.w3.org/Graphics/SVG/1.1/DTD/svg11.dtd">
<!-- Creator: CorelDRAW -->
<svg xmlns="http://www.w3.org/2000/svg" xml:space="preserve" width="6.82666in" height="6.82666in" style="shape-rendering:geometricPrecision; text-rendering:geometricPrecision; image-rendering:optimizeQuality; fill-rule:evenodd; clip-rule:evenodd"
viewBox="0 0 6.82666 6.82666"
 xmlns:xlink="http://www.w3.org/1999/xlink">
 <defs>
  <style type="text/css">
   <![CDATA[
    .fil1 {fill:none}
    .fil0 {fill:#424242}
    .fil2 {fill:#FFFFFE;fill-rule:nonzero}
   ]]>
  </style>
 </defs>
 <rect class="fil0" width="6.82666" height="6.82666"/>
 <g id="Layer_x0020_1">
  <metadata id="CorelCorpID_0Corel-Layer"/>
  <g id="_474239608">
   <rect id="_474239440" class="fil1" width="6.82666" height="6.82666"/>
   <rect id="_474239560" class="fil1" x="0.853331" y="0.853331" width="5.12" height="5.12"/>
  </g>
  <path class="fil2" d="M4.27793 3.76688c0.0665197,-0.0168307 0.105665,-0.0434567 0.124114,-0.0721417 0.00811811,-0.012626 0.011874,-0.0252126 0.0119685,-0.0366772 8.66142e-005,-0.0107047 -0.00286614,-0.0210591 -0.00826378,-0.0299055 -0.00685039,-0.0112283 -0.0179882,-0.0197283 -0.031937,-0.0227283 -0.0438622,-0.00943307 -0.142835,-0.0396102 -0.272567,-0.0791614 -0.344465,-0.105016 -0.915913,-0.27924 -1.19374,-0.287035 -0.0687283,-0.00193307 -0.18337,0.00737402 -0.310315,0.0213819 -0.196898,0.0217244 -0.412236,0.0534134 -0.542886,0.073626l0 0.000417323c-0.011063,0.00170472 -0.0073937,0.000913386 -0.0249803,0.00340551 -0.00988976,0.00140157 -0.0127047,-0.0458858 -0.0143543,-0.021811 -0.0109213,0.158177 -0.0270197,0.397327 -0.0433898,0.640705 -0.0135906,0.202039 -0.0273858,0.407012 -0.0385787,0.571 0.0311063,-0.0204724 0.0644134,-0.0396457 0.0992835,-0.0555236 0.0785906,-0.0357913 0.163744,-0.0544055 0.249327,-0.0360236 0.11978,0.0257953 0.819374,0.149201 1.37314,0.223508 0.312142,0.0418858 0.573071,0.0686378 0.642185,0.0533898l0 -0.000413386c0.137606,-0.0303268 0.397075,-0.150193 0.656264,-0.286843 0.314524,-0.165827 0.622937,-0.35315 0.713394,-0.435567 0.0693228,-0.0631811 0.0957756,-0.121339 0.0937677,-0.166063 -0.000673228,-0.0150866 -0.00507874,-0.0284213 -0.0122756,-0.0392441 -0.00674803,-0.0101417 -0.0160906,-0.0181811 -0.0271535,-0.0233701 -0.0257126,-0.0120669 -0.0616299,-0.0107244 -0.101291,0.0100315 -0.164646,0.0861772 -0.28939,0.139598 -0.429575,0.179913 -0.138736,0.0398937 -0.290622,0.0664606 -0.510882,0.0992165l-0.0308346 -0.210835c0.210689,-0.0313346 0.355067,-0.0564843 0.483386,-0.0933819 0.126866,-0.0364843 0.240016,-0.0849606 0.389575,-0.163244 0.103445,-0.0541339 0.207437,-0.0527717 0.289622,-0.0142047 0.0469291,0.0220157 0.0863622,0.0558346 0.114657,0.0983701 0.0278425,0.0418543 0.0447874,0.0920669 0.0472756,0.147583 0.00458661,0.102228 -0.0411142,0.221701 -0.162941,0.332732 -0.101933,0.092874 -0.429232,0.293287 -0.757559,0.466394 -0.27422,0.144575 -0.553102,0.272354 -0.709594,0.306843l-8.66142e-005 -0.000393701c-0.0971969,0.0213898 -0.38337,-0.00540551 -0.716264,-0.0500787 -0.560717,-0.0752402 -1.26804,-0.199969 -1.38898,-0.226012 -0.0355236,-0.00762992 -0.0763701,0.00259843 -0.116831,0.0210236 -0.049563,0.0225709 -0.0984134,0.0574646 -0.13978,0.0909016 -0.0310315,0.0250709 -0.0600984,0.0388031 -0.0867598,0.0445984 -0.0474173,0.0103071 -0.0858071,-0.00159055 -0.116559,-0.0247874 -0.0250866,-0.0189094 -0.040874,-0.0436181 -0.0506496,-0.067626 -0.0127638,-0.0313465 -0.0149764,-0.0714094 -0.0143701,-0.0793268l5.90551e-005 3.93701e-006c0.0121575,-0.175969 0.0294961,-0.43365 0.0465197,-0.686736 0.0163701,-0.243378 0.0324685,-0.482528 0.0433898,-0.640705 0.0101693,-0.148268 0.0817362,-0.158413 0.197693,-0.174858 0.00270472,-0.00038189 -0.00561024,0.000795276 0.0216417,-0.00340551l6.29921e-005 0.000409449c0.136909,-0.0211811 0.359882,-0.0540906 0.551996,-0.0752874 0.133925,-0.0147756 0.258016,-0.0245079 0.33948,-0.0222165 0.306189,0.00859449 0.894783,0.188043 1.24958,0.296209 0.121929,0.0371693 0.214957,0.0655354 0.255063,0.0741614 0.0742047,0.0159646 0.133256,0.0609134 0.169441,0.120224 0.0255591,0.0418858 0.0395276,0.0911417 0.0390984,0.142409 -0.00042126,0.0505118 -0.0146339,0.102315 -0.0453071,0.150008 -0.0453583,0.0705197 -0.126421,0.132134 -0.25161,0.163811 -0.345539,0.0874291 -0.713098,0.0145512 -0.948839,-0.032189 -0.0437362,-0.00866929 -0.0829134,-0.0164409 -0.109882,-0.021l0.035 -0.21c0.0379961,0.00642126 0.0747205,0.0137087 0.115717,0.0218346 0.217634,0.0431496 0.556969,0.110433 0.856335,0.034685z"/>
  <polygon class="fil2" points="1.9531,3.35162 1.06682,3.35162 1.06682,4.49054 1.81874,4.49054 1.81874,4.70387 0.960154,4.70387 0.853484,4.70387 0.853484,4.5972 0.853484,3.24495 0.853484,3.13828 0.960154,3.13828 1.9531,3.13828 "/>
  <path class="fil2" d="M3.7155 2.14078c0.322815,0.37961 0.580087,0.508189 0.759425,0.501571 0.147232,-0.00543307 0.238272,-0.112606 0.259638,-0.237835 0.0222598,-0.13048 -0.0289724,-0.279665 -0.16772,-0.360366 -0.161114,-0.0937087 -0.436803,-0.0999528 -0.851343,0.0966299zm0.765283 0.667587c-0.237106,0.00875197 -0.568323,-0.153461 -0.960839,-0.643421l-0.0634291 -0.0791732 0.0897992 -0.0468031c0.526535,-0.274417 0.887823,-0.264354 1.10386,-0.138701 0.20537,0.119453 0.281295,0.33974 0.248453,0.53224 -0.0337402,0.197752 -0.180106,0.367083 -0.417843,0.375858z"/>
  <path class="fil2" d="M3.99656 2.14772c-0.0293386,-0.00195669 -0.0547126,0.0202441 -0.0566693,0.0495827 -0.00195669,0.0293386 0.0202441,0.0547126 0.0495827,0.0566693 0.123209,0.00826772 0.235744,0.0267008 0.33739,0.0554567 0.100591,0.0284567 0.190378,0.0669449 0.269146,0.115606 0.0249646,0.0154173 0.0577087,0.00767323 0.073126,-0.0172913 0.0154173,-0.0249646 0.00767323,-0.0577087 -0.0172913,-0.073126 -0.0875827,-0.0541102 -0.186402,-0.0966102 -0.296232,-0.127685 -0.108776,-0.0307756 -0.228531,-0.0504528 -0.359051,-0.0592126z"/>
  <path class="fil2" d="M5.76953 2.40735c-0.096815,0.480638 -0.270476,0.712803 -0.44052,0.792799 -0.174846,0.0822559 -0.34348,0.0147323 -0.441398,-0.115244 -0.0947362,-0.125748 -0.121823,-0.311661 -0.0188701,-0.473228 0.106394,-0.166965 0.354996,-0.30537 0.819409,-0.30361l0.101295 0.000385827 -0.0199173 0.0988976zm-0.510835 0.642413c0.117602,-0.0553268 0.240795,-0.223449 0.32563,-0.573524 -0.329047,0.0154055 -0.503307,0.111165 -0.575606,0.224626 -0.0616181,0.0967008 -0.0452205,0.20822 0.0117047,0.28378 0.0537362,0.0713307 0.144969,0.109012 0.238272,0.0651181z"/>
  <path class="fil2" d="M5.46763 2.64094c0.0251969,-0.015185 0.033311,-0.0479291 0.018126,-0.073126 -0.015185,-0.0251969 -0.0479291,-0.033311 -0.073126,-0.018126 -0.0863386,0.052185 -0.161913,0.108488 -0.226528,0.168969 -0.0652008,0.0610315 -0.118496,0.125807 -0.159669,0.194378 -0.0150709,0.0251969 -0.0068622,0.0578465 0.0183346,0.0729173 0.0251969,0.0150709 0.0578465,0.0068622 0.0729173,-0.0183346 0.0362638,-0.0603898 0.0833031,-0.117535 0.140913,-0.171465 0.0582008,-0.0544764 0.127949,-0.106205 0.209031,-0.155213z"/>
  <path class="fil2" d="M4.87115 2.15107c0.059752,0.173654 0.0997441,0.488669 0.101386,0.807173 0.0014252,0.27578 -0.0257874,0.556575 -0.0936024,0.754421l-0.157551 -0.0540394c0.0617283,-0.180094 0.0864724,-0.441134 0.0851378,-0.699728 -0.00155118,-0.300614 -0.0382047,-0.594764 -0.0929213,-0.753787l0.157551 -0.0540394z"/>
 </g>
</svg>
